<svg xmlns="http://www.w3.org/2000/svg" viewBox="0 0 720 430" font-family="system-ui,Segoe UI,Roboto,sans-serif">
<rect width="720" height="430" fill="#ffffff"/>
<text x="60" y="26" font-size="14" font-weight="600" fill="#0b0b0b">Real $ saving on structural tasks is model-dependent &#8212; it doesn't track agentic rank</text>
<line x1="60" y1="110" x2="700" y2="110" stroke="#ececEA" stroke-width="1"/>
<text x="52" y="114" font-size="11" fill="#898781" text-anchor="end">+50%</text>
<line x1="60" y1="160" x2="700" y2="160" stroke="#ececEA" stroke-width="1"/>
<text x="52" y="164" font-size="11" fill="#898781" text-anchor="end">+25%</text>
<line x1="60" y1="210" x2="700" y2="210" stroke="#c3c2b7" stroke-width="1"/>
<text x="52" y="214" font-size="11" fill="#898781" text-anchor="end">0%</text>
<line x1="60" y1="260" x2="700" y2="260" stroke="#ececEA" stroke-width="1"/>
<text x="52" y="264" font-size="11" fill="#898781" text-anchor="end">-25%</text>
<line x1="60" y1="290" x2="700" y2="290" stroke="#ececEA" stroke-width="1"/>
<text x="52" y="294" font-size="11" fill="#898781" text-anchor="end">-40%</text>
<line x1="60" y1="40" x2="60" y2="360" stroke="#c3c2b7" stroke-width="1"/>
<text x="380" y="410" font-size="12" fill="#898781" text-anchor="middle">weaker &#8592;&#160;&#160;Artificial Analysis Agentic Index&#160;&#160;&#8594; stronger</text>
<text x="20" y="205" font-size="12" fill="#898781" text-anchor="middle" transform="rotate(-90 20 205)">real $ saving per model (structural tasks)</text>
<circle cx="363" cy="176" r="6" fill="#1a9e75"/>
<text x="372" y="179" font-size="10" fill="#5f5e5a" text-anchor="start">DeepSeek +17%</text>
<circle cx="649" cy="126" r="6" fill="#1a9e75"/>
<text x="640" y="129" font-size="10" fill="#5f5e5a" text-anchor="end">Fable 5 +42%</text>
<circle cx="111" cy="189" r="6" fill="#1a9e75"/>
<text x="120" y="192" font-size="10" fill="#5f5e5a" text-anchor="start">Gemini 3.1 Pro +10%</text>
<circle cx="380" cy="133" r="6" fill="#1a9e75"/>
<text x="389" y="136" font-size="10" fill="#5f5e5a" text-anchor="start">Gemini 3.5 Flash +38%</text>
<circle cx="481" cy="213" r="6" fill="#e24b4a"/>
<text x="490" y="216" font-size="10" fill="#5f5e5a" text-anchor="start">GLM-5.2 -2%</text>
<circle cx="515" cy="186" r="6" fill="#1a9e75"/>
<text x="524" y="189" font-size="10" fill="#5f5e5a" text-anchor="start">GPT-5.5 +12%</text>
<circle cx="161" cy="378" r="6" fill="#e24b4a"/>
<text x="170" y="381" font-size="10" fill="#5f5e5a" text-anchor="start">Grok 4.3 -84%</text>
<circle cx="262" cy="207" r="6" fill="#1a9e75"/>
<text x="271" y="210" font-size="10" fill="#5f5e5a" text-anchor="start">Kimi K2.6 +2%</text>
<circle cx="245" cy="102" r="6" fill="#1a9e75"/>
<text x="254" y="105" font-size="10" fill="#5f5e5a" text-anchor="start">MiMo 2.5 +54%</text>
<circle cx="346" cy="149" r="6" fill="#1a9e75"/>
<text x="355" y="152" font-size="10" fill="#5f5e5a" text-anchor="start">MiniMax-M3 +31%</text>
<circle cx="548" cy="196" r="6" fill="#1a9e75"/>
<text x="539" y="199" font-size="10" fill="#5f5e5a" text-anchor="end">Opus 4.8 +7%</text>
<circle cx="279" cy="179" r="6" fill="#1a9e75"/>
<text x="288" y="182" font-size="10" fill="#5f5e5a" text-anchor="start">Qwen 3.7 +15%</text>
<circle cx="560" cy="145" r="6" fill="#1a9e75"/>
<text x="551" y="148" font-size="10" fill="#5f5e5a" text-anchor="end">Sonnet 5 +33%</text>
<text x="60" y="426" font-size="10" fill="#a3a199">14-model run; hy3 shown in the aggregate but omitted here (no published AA Agentic Index). Real cost = OpenRouter list price &#215; tokens, summed over the structural tasks.</text>
</svg>
