<svg xmlns="http://www.w3.org/2000/svg" viewBox="0 0 720 300" font-family="system-ui,Segoe UI,Roboto,sans-serif">
<rect width="720" height="300" fill="#ffffff"/>
<text x="20" y="24" font-size="13" fill="#0b0b0b">On navigation questions the agent answers better AND cheaper with greppy</text>
<text x="18" y="64" font-size="11" fill="#5f5e5a">gson who-uses (java)</text>
<rect x="150" y="48" width="33" height="12" fill="#d3d1c7"/>
<text x="188" y="59" font-size="10" fill="#898781">grep 4k · partial</text>
<rect x="150" y="64" width="18" height="12" fill="#1a9e75"/>
<text x="173" y="75" font-size="10" fill="#0f6e56">greppy 2k · pass</text>
<text x="18" y="108" font-size="11" fill="#5f5e5a">zod who-calls (ts)</text>
<rect x="150" y="92" width="59" height="12" fill="#d3d1c7"/>
<text x="214" y="103" font-size="10" fill="#898781">grep 8k · partial</text>
<rect x="150" y="108" width="36" height="12" fill="#1a9e75"/>
<text x="191" y="119" font-size="10" fill="#0f6e56">greppy 4k · pass</text>
<text x="18" y="152" font-size="11" fill="#5f5e5a">hugo who-calls (go)</text>
<rect x="150" y="136" width="19" height="12" fill="#d3d1c7"/>
<text x="174" y="147" font-size="10" fill="#898781">grep 2k · partial</text>
<rect x="150" y="152" width="15" height="12" fill="#1a9e75"/>
<text x="170" y="163" font-size="10" fill="#0f6e56">greppy 2k · pass</text>
<text x="18" y="196" font-size="11" fill="#5f5e5a">tokio locate (rust)</text>
<rect x="150" y="180" width="18" height="12" fill="#d3d1c7"/>
<text x="173" y="191" font-size="10" fill="#898781">grep 2k · partial</text>
<rect x="150" y="196" width="22" height="12" fill="#1a9e75"/>
<text x="177" y="207" font-size="10" fill="#0f6e56">greppy 3k · pass</text>
<text x="18" y="240" font-size="11" fill="#5f5e5a">gson semantic (java)</text>
<rect x="150" y="224" width="540" height="12" fill="#d3d1c7"/>
<text x="695" y="235" font-size="10" fill="#898781">grep 74k · pass</text>
<rect x="150" y="240" width="322" height="12" fill="#1a9e75"/>
<text x="477" y="251" font-size="10" fill="#0f6e56">greppy 44k · pass</text>
</svg>